<?xml version="1.0" standalone="no"?><!DOCTYPE svg PUBLIC "-//W3C//DTD SVG 1.1//EN" "http://www.w3.org/Graphics/SVG/1.1/DTD/svg11.dtd"><svg t="1602769877136" class="icon" viewBox="0 0 1024 1024" version="1.1" xmlns="http://www.w3.org/2000/svg" p-id="3147" xmlns:xlink="http://www.w3.org/1999/xlink" width="200" height="200"><defs><style type="text/css"></style></defs><path d="M904.2 519c-48.8-33.8-108.6-53.9-173.5-53.9-163.3 0-295.7 126-295.7 281.6 0 45.3 11.5 87.9 31.4 125.8l37.1-20.8c12.4-6.9 27.4-7.3 40.2-1.1l243 119.7c32.1 15.8 68.4-12 61.4-47.1l-52.8-265.7c-2.8-13.9 1.5-28.3 11.4-38.5l97.5-100z" fill="#4EEAAB" p-id="3148"></path><path d="M505.4 153.5L599.8 333c18.4 34.9 52.8 58.6 92 63.2l201.4 23.9-141.4 145.3c-27.5 28.3-39.4 68.3-31.7 107.1l39.5 198.9-181.9-89.6c-16.4-8.1-34.7-12.4-53-12.4-20.5 0-40.7 5.3-58.6 15.3l-177 99 29-200.7c5.7-39.1-8.3-78.4-37.3-105.3L132 440l199.9-34.4c38.9-6.7 72-32.1 88.6-68l84.9-184.1m-2-119.1c-15.8 0-31.6 8.4-39.2 25.1l-113.5 246c-6 12.9-17.9 22.1-31.9 24.5l-267 46c-35.3 6.1-48.3 49.9-22 74.2l198.9 184c10.4 9.6 15.4 23.8 13.4 37.9l-38.8 268.1c-4 27.6 18 49.5 42.8 49.5 7 0 14.2-1.7 21.1-5.6l236.4-132.3c6.5-3.7 13.8-5.5 21.1-5.5 6.5 0 13.1 1.5 19.1 4.4l243 119.7c6.3 3.1 12.8 4.5 19.1 4.5 25.6 0 47.9-23.5 42.3-51.7l-52.8-265.7c-2.8-13.9 1.5-28.3 11.4-38.5l189-194.1c25-25.6 9.7-68.8-25.8-73L701 320c-14.1-1.7-26.5-10.2-33.1-22.8L541.6 57.5c-8.1-15.5-23.2-23.1-38.2-23.1z" fill="#454563" p-id="3149"></path></svg>